<svg width="24" height="22" viewBox="0 0 24 22" fill="none" xmlns="http://www.w3.org/2000/svg">
<path d="M22.5176 5.26183C22.1007 4.7291 21.4521 4.40483 20.7804 4.40483H6.67472L6.23464 2.69083C5.97986 1.69486 5.09969 1 4.08056 1H1.71803C1.32427 1 1 1.32427 1 1.71803C1 2.11178 1.32427 2.43605 1.71803 2.43605H4.08056C4.42799 2.43605 4.7291 2.66767 4.82175 3.0151L7.64753 14.2719C7.90231 15.2679 8.78247 15.9627 9.8016 15.9627H19.0433C20.0624 15.9627 20.9657 15.2679 21.1974 14.2719L22.9345 7.13796C23.0967 6.48942 22.9577 5.79456 22.5176 5.26183ZM21.5216 6.81369L19.7845 13.9476C19.6918 14.2951 19.3907 14.5267 19.0433 14.5267H9.8016C9.45417 14.5267 9.15306 14.2951 9.06042 13.9476L7.04531 5.86404H20.7804C21.0121 5.86404 21.2437 5.97985 21.3827 6.16515C21.5216 6.35045 21.5911 6.58207 21.5216 6.81369Z" fill="white" stroke="white" stroke-width="0.4"/>
<path d="M8.07988 19.2981C8.07988 18.0883 9.07896 17.0892 10.2887 17.0892C11.4985 17.0892 12.4976 18.0883 12.4976 19.2981C12.4976 20.5079 11.4985 21.5069 10.2887 21.5069C9.07896 21.5069 8.07988 20.5079 8.07988 19.2981ZM9.1391 19.2981C9.1391 19.9413 9.64556 20.4477 10.2887 20.4477C10.9088 20.4477 11.4384 19.9181 11.4384 19.2981C11.4384 18.6549 10.9319 18.1484 10.2887 18.1484C9.64556 18.1484 9.1391 18.6549 9.1391 19.2981Z" fill="white" stroke="white" stroke-width="0.4"/>
<path d="M16.0457 19.2981C16.0457 18.0883 17.0448 17.0892 18.2546 17.0892C19.4606 17.0892 20.4412 18.0849 20.4634 19.2998C20.4625 20.5088 19.4638 21.5069 18.2546 21.5069C17.0448 21.5069 16.0457 20.5079 16.0457 19.2981ZM17.1049 19.2981C17.1049 19.9413 17.6114 20.4477 18.2546 20.4477C18.8746 20.4477 19.4042 19.9181 19.4042 19.2981C19.4042 18.6549 18.8977 18.1484 18.2546 18.1484C17.6114 18.1484 17.1049 18.6549 17.1049 19.2981Z" fill="white" stroke="white" stroke-width="0.4"/>
</svg>
